<svg xmlns="http://www.w3.org/2000/svg" xmlns:xlink="http://www.w3.org/1999/xlink" version="1.1" width="256" height="256" viewBox="0 0 256 256" xml:space="preserve">

<defs>
</defs>
<g style="stroke: none; stroke-width: 0; stroke-dasharray: none; stroke-linecap: butt; stroke-linejoin: miter; stroke-miterlimit: 10; fill: none; fill-rule: nonzero; opacity: 1;" transform="translate(1.4065934065934016 1.4065934065934016) scale(2.81 2.81)" >
	<path d="M 64.806 14.041 C 83.886 12.27 89 56.256 89 66.538 c 0 15.506 -10.243 18.824 -16.703 18.824 c -6.703 0 -12.484 -4.45 -15.144 -10.873 L 64.806 14.041 z" style="stroke: none; stroke-width: 1; stroke-dasharray: none; stroke-linecap: butt; stroke-linejoin: miter; stroke-miterlimit: 10; fill: rgb(150,90,80); fill-rule: nonzero; opacity: 1;" transform=" matrix(1 0 0 1 0 0) " stroke-linecap="round" />
	<path d="M 25.194 14.041 C 6.114 12.27 1 56.256 1 66.538 c 0 15.506 10.243 18.824 16.703 18.824 c 6.703 0 12.484 -4.45 15.144 -10.873 L 25.194 14.041 z" style="stroke: none; stroke-width: 1; stroke-dasharray: none; stroke-linecap: butt; stroke-linejoin: miter; stroke-miterlimit: 10; fill: rgb(150,90,80); fill-rule: nonzero; opacity: 1;" transform=" matrix(1 0 0 1 0 0) " stroke-linecap="round" />
	<path d="M 46.123 71.158 c 1.528 2.518 4.364 4.188 7.592 4.111 c 4.58 -0.109 8.179 -3.98 8.179 -8.561 v -0.005 c 0 -4.23 1.014 -8.387 2.878 -12.184 c 15.569 -31.712 -2.66 -49.882 -19.846 -49.882 S 9.511 22.807 25.08 54.519 c 1.864 3.797 2.878 7.955 2.878 12.184 v 0.005 c 0 4.581 3.6 8.452 8.179 8.561 c 3.228 0.077 6.064 -1.593 7.592 -4.111 C 44.273 70.263 45.58 70.263 46.123 71.158 z" style="stroke: none; stroke-width: 1; stroke-dasharray: none; stroke-linecap: butt; stroke-linejoin: miter; stroke-miterlimit: 10; fill: rgb(231,201,165); fill-rule: nonzero; opacity: 1;" transform=" matrix(1 0 0 1 0 0) " stroke-linecap="round" />
	<path d="M 36.344 76.272 c -0.077 0 -0.153 -0.001 -0.23 -0.003 c -5.049 -0.12 -9.156 -4.409 -9.156 -9.562 c 0 -3.988 -0.96 -8.049 -2.776 -11.748 c -7.36 -14.991 -7.962 -28.787 -1.695 -38.846 C 27.283 8.418 35.881 3.637 44.926 3.637 s 17.643 4.781 22.438 12.477 c 6.268 10.059 5.666 23.855 -1.694 38.846 c -1.816 3.7 -2.776 7.761 -2.776 11.743 c 0 5.157 -4.107 9.446 -9.155 9.566 c -0.076 0.002 -0.153 0.002 -0.23 0.003 c -3.37 0 -6.512 -1.746 -8.24 -4.596 c -0.101 -0.165 -0.257 -0.19 -0.342 -0.19 c -0.084 0 -0.241 0.025 -0.341 0.19 C 42.856 74.526 39.714 76.271 36.344 76.272 z M 44.926 69.486 c 0.847 0 1.614 0.432 2.051 1.153 h 0.001 c 1.396 2.304 3.98 3.73 6.713 3.63 c 3.971 -0.094 7.202 -3.486 7.202 -7.562 c 0 -4.292 1.031 -8.657 2.981 -12.629 c 7.044 -14.349 7.681 -27.456 1.792 -36.908 c -4.433 -7.114 -12.38 -11.534 -20.741 -11.534 s -16.308 4.419 -20.741 11.534 c -5.889 9.451 -5.252 22.559 1.792 36.908 c 1.95 3.972 2.981 8.337 2.981 12.624 c 0 4.08 3.231 7.473 7.203 7.566 c 2.755 0.097 5.315 -1.325 6.713 -3.63 C 43.312 69.918 44.079 69.486 44.926 69.486 C 44.926 69.486 44.926 69.486 44.926 69.486 z" style="stroke: none; stroke-width: 1; stroke-dasharray: none; stroke-linecap: butt; stroke-linejoin: miter; stroke-miterlimit: 10; fill: rgb(0,0,0); fill-rule: nonzero; opacity: 1;" transform=" matrix(1 0 0 1 0 0) " stroke-linecap="round" />
	<path d="M 50.885 64.361 c 0 3.291 -2.668 5.959 -5.959 5.959 c -3.291 0 -5.959 -2.668 -5.959 -5.959 c 0 -3.291 2.668 -4.589 5.959 -4.589 C 48.217 59.772 50.885 61.07 50.885 64.361 z" style="stroke: none; stroke-width: 1; stroke-dasharray: none; stroke-linecap: butt; stroke-linejoin: miter; stroke-miterlimit: 10; fill: rgb(150,90,80); fill-rule: nonzero; opacity: 1;" transform=" matrix(1 0 0 1 0 0) " stroke-linecap="round" />
	<path d="M 44.926 71.32 c -3.837 0 -6.959 -3.122 -6.959 -6.959 c 0 -3.5 2.602 -5.589 6.959 -5.589 c 4.357 0 6.958 2.089 6.958 5.589 C 51.885 68.198 48.764 71.32 44.926 71.32 z M 44.926 60.772 c -2.262 0 -4.959 0.623 -4.959 3.589 c 0 2.734 2.225 4.959 4.959 4.959 c 2.734 0 4.958 -2.225 4.958 -4.959 C 49.885 61.396 47.188 60.772 44.926 60.772 z" style="stroke: none; stroke-width: 1; stroke-dasharray: none; stroke-linecap: butt; stroke-linejoin: miter; stroke-miterlimit: 10; fill: rgb(0,0,0); fill-rule: nonzero; opacity: 1;" transform=" matrix(1 0 0 1 0 0) " stroke-linecap="round" />
	<circle cx="34.695" cy="38.005" r="3.645" style="stroke: none; stroke-width: 1; stroke-dasharray: none; stroke-linecap: butt; stroke-linejoin: miter; stroke-miterlimit: 10; fill: rgb(0,0,0); fill-rule: nonzero; opacity: 1;" transform="  matrix(1 0 0 1 0 0) "/>
	<circle cx="56.155" cy="38.005" r="3.645" style="stroke: none; stroke-width: 1; stroke-dasharray: none; stroke-linecap: butt; stroke-linejoin: miter; stroke-miterlimit: 10; fill: rgb(0,0,0); fill-rule: nonzero; opacity: 1;" transform="  matrix(1 0 0 1 0 0) "/>
	<path d="M 17.703 86.363 C 9.145 86.363 0 81.155 0 66.538 c 0 -5.934 2.616 -38.459 15.048 -49.791 c 3.073 -2.802 6.515 -4.05 10.239 -3.702 l -0.185 1.991 c -3.138 -0.289 -6.066 0.782 -8.707 3.188 C 5.544 28.116 2 57.519 2 66.538 c 0 16.54 12.019 17.825 15.703 17.825 c 6.058 0 11.64 -4.025 14.22 -10.256 l 1.848 0.766 C 30.88 81.853 24.573 86.363 17.703 86.363 z" style="stroke: none; stroke-width: 1; stroke-dasharray: none; stroke-linecap: butt; stroke-linejoin: miter; stroke-miterlimit: 10; fill: rgb(0,0,0); fill-rule: nonzero; opacity: 1;" transform=" matrix(1 0 0 1 0 0) " stroke-linecap="round" />
	<path d="M 72.298 86.363 c -6.87 0 -13.177 -4.51 -16.068 -11.49 l 1.848 -0.766 c 2.581 6.23 8.163 10.256 14.221 10.256 C 75.981 84.363 88 83.078 88 66.538 c 0 -9.02 -3.544 -38.422 -14.396 -48.313 c -2.641 -2.406 -5.571 -3.481 -8.706 -3.188 l -0.186 -1.991 c 3.724 -0.347 7.165 0.9 10.239 3.702 C 87.384 28.079 90 60.604 90 66.538 C 90 81.155 80.855 86.363 72.298 86.363 z" style="stroke: none; stroke-width: 1; stroke-dasharray: none; stroke-linecap: butt; stroke-linejoin: miter; stroke-miterlimit: 10; fill: rgb(0,0,0); fill-rule: nonzero; opacity: 1;" transform=" matrix(1 0 0 1 0 0) " stroke-linecap="round" />
</g>
</svg>