<svg xmlns="http://www.w3.org/2000/svg" xmlns:xlink="http://www.w3.org/1999/xlink" version="1.1" width="256" height="256" viewBox="0 0 256 256" xml:space="preserve">

<defs>
</defs>
<g style="stroke: none; stroke-width: 0; stroke-dasharray: none; stroke-linecap: butt; stroke-linejoin: miter; stroke-miterlimit: 10; fill: none; fill-rule: nonzero; opacity: 1;" transform="translate(1.4065934065934016 1.4065934065934016) scale(2.81 2.81)" >
	<path d="M 36.65 67.846 c -2.788 -3.16 -6.577 -4.901 -10.668 -4.901 s -7.88 1.74 -10.668 4.901 l -4.651 5.273 c -3.424 3.628 -3.424 9.531 0 13.16 c 1.677 1.776 3.91 2.755 6.289 2.755 c 2.378 0 4.611 -0.979 6.288 -2.755 c 0.736 -0.78 1.71 -1.21 2.743 -1.21 s 2.007 0.43 2.742 1.21 c 1.676 1.776 3.909 2.755 6.289 2.755 c 2.379 0 4.612 -0.979 6.288 -2.755 c 3.419 -3.624 3.423 -9.518 0.012 -13.147 L 36.65 67.846 z" style="stroke: none; stroke-width: 1; stroke-dasharray: none; stroke-linecap: butt; stroke-linejoin: miter; stroke-miterlimit: 10; fill: rgb(0,0,0); fill-rule: nonzero; opacity: 1;" transform=" matrix(1 0 0 1 0 0) " stroke-linecap="round" />
	<path d="M 14.675 59.526 c 0.959 0.635 2.097 0.962 3.302 0.962 c 0.481 0 0.972 -0.053 1.467 -0.157 c 1.734 -0.369 3.166 -1.318 4.029 -2.675 c 0.93 -1.46 1.188 -3.33 0.746 -5.409 c -0.932 -4.387 -4.478 -7.365 -7.903 -6.637 c -3.426 0.729 -5.454 4.891 -4.521 9.278 C 12.236 56.966 13.232 58.569 14.675 59.526 z" style="stroke: none; stroke-width: 1; stroke-dasharray: none; stroke-linecap: butt; stroke-linejoin: miter; stroke-miterlimit: 10; fill: rgb(0,0,0); fill-rule: nonzero; opacity: 1;" transform=" matrix(1 0 0 1 0 0) " stroke-linecap="round" />
	<path d="M 32.519 60.33 c 0.495 0.104 0.986 0.157 1.467 0.157 c 1.205 0 2.344 -0.327 3.302 -0.962 c 1.443 -0.956 2.439 -2.56 2.881 -4.638 c 0.932 -4.387 -1.096 -8.549 -4.521 -9.278 c -1.712 -0.361 -3.49 0.162 -5.001 1.482 c -1.431 1.25 -2.462 3.08 -2.902 5.155 c -0.442 2.078 -0.184 3.949 0.745 5.409 C 29.353 59.011 30.785 59.961 32.519 60.33 z" style="stroke: none; stroke-width: 1; stroke-dasharray: none; stroke-linecap: butt; stroke-linejoin: miter; stroke-miterlimit: 10; fill: rgb(0,0,0); fill-rule: nonzero; opacity: 1;" transform=" matrix(1 0 0 1 0 0) " stroke-linecap="round" />
	<path d="M 49.016 57.216 c -2.864 -1.335 -6.565 0.549 -8.265 4.192 c -1.815 3.892 -0.023 6.848 2.557 8.051 c 0.784 0.365 1.645 0.571 2.514 0.571 c 1.993 0 4.033 -1.08 5.296 -3.788 C 52.817 62.597 51.874 58.549 49.016 57.216 z" style="stroke: none; stroke-width: 1; stroke-dasharray: none; stroke-linecap: butt; stroke-linejoin: miter; stroke-miterlimit: 10; fill: rgb(0,0,0); fill-rule: nonzero; opacity: 1;" transform=" matrix(1 0 0 1 0 0) " stroke-linecap="round" />
	<path d="M 11.212 61.407 c -1.699 -3.643 -5.406 -5.522 -8.265 -4.192 c -2.858 1.333 -3.801 5.382 -2.101 9.026 c 1.263 2.708 3.302 3.787 5.296 3.787 c 0.87 0 1.731 -0.205 2.515 -0.57 C 11.236 68.256 13.027 65.299 11.212 61.407 z" style="stroke: none; stroke-width: 1; stroke-dasharray: none; stroke-linecap: butt; stroke-linejoin: miter; stroke-miterlimit: 10; fill: rgb(0,0,0); fill-rule: nonzero; opacity: 1;" transform=" matrix(1 0 0 1 0 0) " stroke-linecap="round" />
	<path d="M 74.678 23.313 c -2.788 -3.16 -6.577 -4.9 -10.668 -4.9 s -7.879 1.74 -10.668 4.9 l -4.652 5.273 c -3.424 3.628 -3.424 9.532 0 13.161 c 1.677 1.776 3.909 2.755 6.289 2.755 c 0 0 0 0 0.001 0 c 2.378 0 4.611 -0.979 6.287 -2.755 c 0.736 -0.78 1.71 -1.21 2.742 -1.21 c 0.001 0 0.001 0 0.001 0 c 1.032 0 2.007 0.43 2.742 1.21 c 1.676 1.776 3.909 2.755 6.289 2.755 c 2.378 0 4.612 -0.979 6.288 -2.755 c 3.42 -3.624 3.424 -9.518 0.012 -13.148 L 74.678 23.313 z" style="stroke: none; stroke-width: 1; stroke-dasharray: none; stroke-linecap: butt; stroke-linejoin: miter; stroke-miterlimit: 10; fill: rgb(0,0,0); fill-rule: nonzero; opacity: 1;" transform=" matrix(1 0 0 1 0 0) " stroke-linecap="round" />
	<path d="M 52.703 14.992 c 0.958 0.635 2.097 0.962 3.303 0.962 c 0.481 0 0.972 -0.052 1.466 -0.157 c 1.734 -0.369 3.165 -1.318 4.029 -2.675 c 0.93 -1.46 1.188 -3.33 0.746 -5.409 c -0.934 -4.387 -4.474 -7.362 -7.904 -6.636 c -3.425 0.729 -5.453 4.891 -4.521 9.277 C 50.264 12.433 51.26 14.036 52.703 14.992 z" style="stroke: none; stroke-width: 1; stroke-dasharray: none; stroke-linecap: butt; stroke-linejoin: miter; stroke-miterlimit: 10; fill: rgb(0,0,0); fill-rule: nonzero; opacity: 1;" transform=" matrix(1 0 0 1 0 0) " stroke-linecap="round" />
	<path d="M 70.546 15.797 c 0.494 0.106 0.985 0.157 1.466 0.157 c 1.206 0 2.345 -0.327 3.303 -0.962 c 1.443 -0.956 2.44 -2.56 2.882 -4.638 c 0.933 -4.387 -1.096 -8.549 -4.522 -9.278 c -3.432 -0.726 -6.97 2.25 -7.904 6.636 c -0.441 2.078 -0.184 3.949 0.746 5.409 C 67.381 14.478 68.812 15.428 70.546 15.797 z" style="stroke: none; stroke-width: 1; stroke-dasharray: none; stroke-linecap: butt; stroke-linejoin: miter; stroke-miterlimit: 10; fill: rgb(0,0,0); fill-rule: nonzero; opacity: 1;" transform=" matrix(1 0 0 1 0 0) " stroke-linecap="round" />
	<path d="M 89.846 16.464 c -0.372 -1.769 -1.367 -3.112 -2.802 -3.781 c -2.858 -1.33 -6.565 0.547 -8.265 4.192 c -1.814 3.892 -0.022 6.848 2.557 8.05 c 0.784 0.366 1.646 0.571 2.516 0.571 c 1.992 0 4.032 -1.079 5.294 -3.787 C 89.946 19.991 90.195 18.128 89.846 16.464 z" style="stroke: none; stroke-width: 1; stroke-dasharray: none; stroke-linecap: butt; stroke-linejoin: miter; stroke-miterlimit: 10; fill: rgb(0,0,0); fill-rule: nonzero; opacity: 1;" transform=" matrix(1 0 0 1 0 0) " stroke-linecap="round" />
	<path d="M 49.24 16.874 c -1.7 -3.644 -5.407 -5.523 -8.265 -4.192 c -2.858 1.333 -3.801 5.382 -2.101 9.026 c 1.263 2.709 3.302 3.788 5.295 3.788 c 0.87 0 1.732 -0.206 2.516 -0.571 C 49.263 23.721 51.055 20.766 49.24 16.874 z" style="stroke: none; stroke-width: 1; stroke-dasharray: none; stroke-linecap: butt; stroke-linejoin: miter; stroke-miterlimit: 10; fill: rgb(0,0,0); fill-rule: nonzero; opacity: 1;" transform=" matrix(1 0 0 1 0 0) " stroke-linecap="round" />
</g>
</svg>